<svg width="26" height="30" viewBox="0 0 26 30" fill="none" xmlns="http://www.w3.org/2000/svg">
<path d="M12.634 5.69972C12.9007 5.36639 13.034 4.96639 13.034 4.53306C13.034 3.49972 12.2007 2.63306 11.134 2.63306H9.56738C9.30072 2.63306 9.06738 2.86639 9.06738 3.13306V8.66639C9.06738 8.93306 9.30072 9.16639 9.56738 9.16639H11.634C12.6674 9.16639 13.534 8.33306 13.534 7.26639C13.534 6.59972 13.1674 6.03306 12.634 5.69972ZM11.134 3.63306C11.634 3.63306 12.034 4.03306 12.034 4.53306C12.034 5.03306 11.634 5.43306 11.134 5.43306H10.0674V3.66639H11.134V3.63306ZM11.634 8.19972H10.0674V6.43306H11.634C12.134 6.43306 12.534 6.83306 12.534 7.33306C12.534 7.79972 12.134 8.19972 11.634 8.19972ZM19.8007 2.63306H18.0674C17.8007 2.63306 17.5674 2.86639 17.5674 3.13306V8.66639C17.5674 8.93306 17.8007 9.16639 18.0674 9.16639H19.8007C21.034 9.16639 22.034 8.16639 22.034 6.93306V4.83306C22.034 3.63306 21.034 2.63306 19.8007 2.63306ZM21.034 6.96639C21.034 7.63306 20.5007 8.19972 19.8007 8.19972H18.5674V3.63306H19.8007C20.4674 3.63306 21.034 4.16639 21.034 4.86639V6.96639ZM15.4341 2.63306C15.1674 2.63306 14.9341 2.86639 14.9341 3.13306V8.66639C14.9341 8.93306 15.1674 9.16639 15.4341 9.16639C15.7007 9.16639 15.934 8.93306 15.934 8.66639V3.13306C15.934 2.86639 15.7007 2.63306 15.4341 2.63306Z" fill="url(#paint0_linear_173_3188)"/>
<path d="M24.1 0H7C6.16667 0 5.46667 0.7 5.46667 1.53333V10.3C5.46667 11.1333 6.16667 11.8333 7 11.8333H13.3667V16H13C10.9333 16 10.3 16.5 8.9 17.5667L8.76667 17.6667C7.2 18.8667 6.83333 19 5.73333 19.0333V18.9333C5.73333 18.2 5.13333 17.6333 4.43333 17.6333H1.3C0.566666 17.6333 0 18.2333 0 18.9333V28.4333C0 29.1667 0.6 29.7667 1.3 29.7667H4.43333C5.16667 29.7667 5.73333 29.1667 5.73333 28.4333V28.3667C7.23333 28.4333 7.76667 28.8 8.26667 29.2C8.76667 29.6 9.3 30 10.5333 30H17.7333C18.6333 30 19.3667 29.2667 19.3667 28.3667C19.3667 28.0667 19.3 27.8 19.1333 27.5333C19.7333 27.2333 20.1667 26.6333 20.1667 25.9C20.1667 25.5333 20.0667 25.2 19.8667 24.9C20.4667 24.6 20.8667 24 20.8667 23.2667C20.8667 22.5667 20.4667 21.9333 19.8667 21.6333C20.0667 21.3333 20.1667 21 20.1667 20.6333C20.1667 19.6333 19.3667 18.8333 18.3667 18.8333H17.7333V11.8333H24.1C24.9333 11.8333 25.6333 11.1333 25.6333 10.3V1.53333C25.6333 0.7 24.9333 0 24.1 0ZM4.73333 28.4667C4.73333 28.6333 4.6 28.8 4.43333 28.8H1.3C1.13333 28.8 1 28.6667 1 28.4667V18.9667C1 18.8 1.13333 18.6667 1.3 18.6667H4.43333C4.6 18.6667 4.73333 18.8 4.73333 18.9667V28.4667ZM19.1667 20.6667C19.1667 21.1 18.8 21.4667 18.3667 21.4667H16.9C16.6333 21.4667 16.4 21.7 16.4 21.9667C16.4 22.2333 16.6333 22.4667 16.9 22.4667H19.0667C19.5 22.4667 19.8667 22.8333 19.8667 23.2667C19.8667 23.7 19.5 24.0667 19.0667 24.0667H16.9C16.6333 24.0667 16.4 24.3 16.4 24.5667C16.4 24.8333 16.6333 25.0667 16.9 25.0667H18.3667C18.8 25.0667 19.1667 25.4333 19.1667 25.8667C19.1667 26.3 18.8 26.6667 18.3667 26.6667H16.9C16.6333 26.6667 16.4 26.9 16.4 27.1667C16.4 27.4333 16.6333 27.6667 16.9 27.6667H17.7333C18.1 27.6667 18.3667 27.9667 18.3667 28.3C18.3667 28.6667 18.0667 28.9333 17.7333 28.9333H10.5333C9.63333 28.9333 9.3 28.7 8.86667 28.3333C8.3 27.9 7.6 27.3667 5.73333 27.3V19.9667C7.06667 19.9333 7.6 19.7667 9.36667 18.4L9.53333 18.3C10.8667 17.2667 11.3333 16.9333 13.0333 16.9333H13.4V18.7667H12.8C12.5333 18.7667 12.3 19 12.3 19.2667C12.3 19.5333 12.5333 19.7667 12.8 19.7667H18.3667C18.8 19.8333 19.1667 20.2 19.1667 20.6667ZM16.7333 18.8333H14.3667V11.8333H16.7333V18.8333ZM24.6333 10.3C24.6333 10.6 24.4 10.8333 24.1 10.8333H7C6.7 10.8333 6.46667 10.6 6.46667 10.3V1.53333C6.46667 1.23333 6.7 1 7 1H24.1C24.4 1 24.6333 1.23333 24.6333 1.53333V10.3Z" fill="url(#paint1_linear_173_3188)"/>
<defs>
<linearGradient id="paint0_linear_173_3188" x1="15.5507" y1="2.63306" x2="15.5507" y2="9.16639" gradientUnits="userSpaceOnUse">
<stop stop-color="#CC4645"/>
<stop offset="1" stop-color="#9A1D1C"/>
</linearGradient>
<linearGradient id="paint1_linear_173_3188" x1="12.8167" y1="0" x2="12.8167" y2="30" gradientUnits="userSpaceOnUse">
<stop stop-color="#CC4645"/>
<stop offset="1" stop-color="#9A1D1C"/>
</linearGradient>
</defs>
</svg>
