<svg width="30" height="30" viewBox="0 0 30 30" fill="none" xmlns="http://www.w3.org/2000/svg">
<path fill-rule="evenodd" clip-rule="evenodd" d="M0.00071386 21.4288V28.2138C0.000620089 28.4483 0.0467104 28.6805 0.136353 28.8971C0.225996 29.1138 0.357436 29.3107 0.523168 29.4765C0.6889 29.6424 0.885679 29.774 1.10227 29.8638C1.31886 29.9536 1.55102 29.9999 1.78549 30H8.57194C8.76137 30 8.94305 29.9247 9.077 29.7908C9.21095 29.6568 9.28621 29.4752 9.28621 29.2857C9.28621 29.0963 9.21095 28.9146 9.077 28.7807C8.94305 28.6467 8.76137 28.5715 8.57194 28.5715H1.78549C1.69072 28.5711 1.5999 28.5334 1.53277 28.4665C1.46613 28.3993 1.42868 28.3085 1.42854 28.2138V21.4288C1.42854 21.2393 1.35328 21.0577 1.21933 20.9237C1.08538 20.7898 0.903705 20.7145 0.714269 20.7145C0.524833 20.7145 0.343156 20.7898 0.209205 20.9237C0.0752532 21.0577 0.00071386 21.2393 0.00071386 21.4288ZM21.4288 29.9993H28.2138C28.4484 29.9994 28.6807 29.9532 28.8975 29.8635C29.1142 29.7738 29.3112 29.6422 29.477 29.4763C29.6429 29.3104 29.7745 29.1135 29.8642 28.8967C29.954 28.68 30.0001 28.4477 30 28.2131V21.4281C30 21.2386 29.9247 21.0569 29.7908 20.923C29.6568 20.789 29.4752 20.7138 29.2857 20.7138C29.0963 20.7138 28.9146 20.789 28.7807 20.923C28.6467 21.0569 28.5715 21.2386 28.5715 21.4281V28.2131C28.5707 28.3075 28.5329 28.3979 28.4661 28.4647C28.3993 28.5314 28.3089 28.5693 28.2145 28.57H21.4288C21.2392 28.57 21.0575 28.6453 20.9235 28.7793C20.7894 28.9134 20.7142 29.0951 20.7142 29.2847C20.7142 29.4742 20.7894 29.656 20.9235 29.79C21.0575 29.924 21.2392 29.9993 21.4288 29.9993ZM29.9993 8.57194V1.78549C29.9993 1.55096 29.9531 1.31872 29.8633 1.10205C29.7735 0.885377 29.6419 0.688514 29.4761 0.522707C29.3102 0.356899 29.1133 0.225395 28.8966 0.135708C28.6799 0.0460203 28.4476 -9.36335e-05 28.2131 1.42738e-07H21.4281C21.2387 1.46728e-07 21.0571 0.0752156 20.9233 0.2091C20.7894 0.342984 20.7142 0.524571 20.7142 0.713912C20.7142 0.903253 20.7894 1.08484 20.9233 1.21872C21.0571 1.35261 21.2387 1.42782 21.4281 1.42782H28.2131C28.3075 1.42857 28.3979 1.46642 28.4647 1.5332C28.5314 1.59998 28.5693 1.69034 28.57 1.78478V8.57123C28.57 8.76076 28.6453 8.94252 28.7793 9.07654C28.9134 9.21056 29.0951 9.28585 29.2847 9.28585C29.4742 9.28585 29.656 9.21056 29.79 9.07654C29.924 8.94252 29.9993 8.76147 29.9993 8.57194ZM8.57194 0.000714003H1.78549C1.31207 0.000713965 0.858036 0.18873 0.523211 0.523421C0.188387 0.858111 0.000189292 1.31207 0 1.78549V8.57194C3.99007e-09 8.76128 0.0752155 8.94287 0.2091 9.07675C0.342984 9.21064 0.524571 9.28585 0.713912 9.28585C0.903253 9.28585 1.08484 9.21064 1.21872 9.07675C1.35261 8.94287 1.42782 8.76128 1.42782 8.57194V1.78549C1.42857 1.69105 1.46642 1.60069 1.5332 1.53391C1.59998 1.46713 1.69034 1.42928 1.78478 1.42854H8.57122C8.76066 1.42854 8.94234 1.35328 9.07629 1.21933C9.21024 1.08538 9.28549 0.903705 9.28549 0.714269C9.28549 0.524833 9.21024 0.343156 9.07629 0.209205C8.94234 0.0752532 8.76066 1.42738e-07 8.57122 1.42738e-07L8.57194 0.000714003ZM22.5253 10.7144H20.3615C20.3027 10.7143 20.2449 10.6997 20.1931 10.672C20.1413 10.6442 20.0971 10.6041 20.0645 10.5552L18.7959 8.65261C18.6328 8.40799 18.4119 8.20741 18.1528 8.06867C17.8936 7.92993 17.6042 7.85733 17.3102 7.85731H12.7426C12.1458 7.85731 11.5882 8.15573 11.2577 8.65261L9.98834 10.5552C9.95573 10.6041 9.91157 10.6442 9.85977 10.672C9.80797 10.6997 9.75012 10.7143 9.69135 10.7144H7.52677C7.05323 10.7144 6.59908 10.9025 6.26424 11.2373C5.92939 11.5722 5.74128 12.0263 5.74128 12.4999V20.3572C5.74118 20.5916 5.78728 20.8238 5.87693 21.0404C5.96658 21.257 6.09803 21.4539 6.26378 21.6197C6.42952 21.7855 6.6263 21.917 6.84289 22.0068C7.05947 22.0965 7.29162 22.1427 7.52606 22.1427H22.5261C22.7606 22.1429 22.9929 22.0968 23.2097 22.0072C23.4264 21.9175 23.6234 21.786 23.7893 21.6202C23.9552 21.4544 24.0867 21.2575 24.1765 21.0408C24.2662 20.824 24.3124 20.5918 24.3123 20.3572V12.4999C24.3123 12.2653 24.2661 12.0331 24.1763 11.8164C24.0865 11.5998 23.9549 11.4029 23.7891 11.2371C23.6232 11.0713 23.4263 10.9398 23.2096 10.8501C22.9928 10.7604 22.7599 10.7143 22.5253 10.7144ZM15.0257 12.1429C14.0937 12.1658 13.2075 12.552 12.5564 13.2193C11.9052 13.8866 11.5408 14.782 11.5408 15.7143C11.5408 16.6466 11.9052 17.542 12.5564 18.2092C13.2075 18.8765 14.0937 19.2628 15.0257 19.2856C16.9968 19.2856 18.5974 17.6857 18.5974 15.7146C18.5974 13.7435 16.9968 12.1429 15.0257 12.1429ZM15.0257 13.5715C15.5823 13.5891 16.1102 13.8225 16.4977 14.2225C16.8852 14.6224 17.1018 15.1574 17.1018 15.7143C17.1018 16.2711 16.8852 16.8061 16.4977 17.2061C16.1102 17.606 15.5823 17.8395 15.0257 17.8571C14.4691 17.8395 13.9412 17.606 13.5537 17.2061C13.1662 16.8061 12.9496 16.2711 12.9496 15.7143C12.9496 15.1574 13.1662 14.6224 13.5537 14.2225C13.9412 13.8225 14.4691 13.5891 15.0257 13.5715Z" fill="url(#paint0_linear_173_3183)"/>
<defs>
<linearGradient id="paint0_linear_173_3183" x1="15" y1="0" x2="15" y2="30" gradientUnits="userSpaceOnUse">
<stop stop-color="#CC4645"/>
<stop offset="1" stop-color="#9A1D1C"/>
</linearGradient>
</defs>
</svg>
