<svg width="20" height="20" fill="none" xmlns="http://www.w3.org/2000/svg"><circle cx="10" cy="10" r="10" fill="url(#paint0_linear_1965_24027)"/><path d="M7.67 14H5V7.111h2.67V14zm-2.225-.444h1.78v-6h-1.78v6zm9.788.444h-2.67v-3.778a.667.667 0 00-1.335 0V14H8.56V7.111h2.67v.447a2.362 2.362 0 011.384-.447c1.443 0 2.62 1.17 2.62 2.609V14zm-2.225-.444h1.78V9.719a2.17 2.17 0 00-2.175-2.163c-.547 0-1.062.23-1.446.647l-.383.42V7.555h-1.78v6h1.78v-3.334a1.112 1.112 0 012.224 0v3.334zm-6.673-6.89A1.334 1.334 0 116.333 4a1.334 1.334 0 01.002 2.668zm0-2.222a.89.89 0 10-.001 1.78.89.89 0 000-1.78z" fill="#fff"/><defs><linearGradient id="paint0_linear_1965_24027" x1="0" y1="10" x2="20" y2="10" gradientUnits="userSpaceOnUse"><stop stop-color="#CC4645"/><stop offset="1" stop-color="#9A1D1C"/></linearGradient></defs></svg>