<svg width="20" height="20" fill="none" xmlns="http://www.w3.org/2000/svg"><circle cx="10" cy="10" r="10" fill="url(#paint0_linear_1965_24021)"/><path d="M12.5 5h-5A2.507 2.507 0 005 7.5v5C5 13.874 6.125 15 7.5 15h5c1.375 0 2.5-1.126 2.5-2.5v-5C15 6.125 13.875 5 12.5 5zm1.666 7.5c0 .919-.747 1.667-1.666 1.667h-5A1.669 1.669 0 015.833 12.5v-5A1.67 1.67 0 017.5 5.833h5c.92 0 1.666.748 1.666 1.667v5z" fill="#fff"/><path d="M12.709 7.916a.625.625 0 100-1.25.625.625 0 000 1.25zM10 7.5a2.5 2.5 0 100 5 2.5 2.5 0 000-5zm0 4.167a1.667 1.667 0 110-3.334 1.667 1.667 0 010 3.334z" fill="#fff"/><defs><linearGradient id="paint0_linear_1965_24021" x1="0" y1="10" x2="20" y2="10" gradientUnits="userSpaceOnUse"><stop stop-color="#CC4645"/><stop offset="1" stop-color="#9A1D1C"/></linearGradient></defs></svg>