<svg width="20" height="20" viewBox="0 0 20 20" fill="none" xmlns="http://www.w3.org/2000/svg">
<circle cx="10" cy="10" r="10" fill="url(#paint0_linear_5830_7714)"/>
<g clip-path="url(#clip0_5830_7714)">
<path d="M8.55137 9.30563C7.20116 9.39938 6.04199 10.3617 6.04199 11.8365C6.04199 13.2385 7.16553 14.375 8.55137 14.375C9.9372 14.375 11.061 13.2385 11.061 11.8365L10.9885 8.67188C11.6191 9.15854 12.6264 9.45271 13.5585 9.49979C13.7251 9.50813 13.8851 9.4325 13.9241 9.27C13.9439 9.18729 13.9587 9.07958 13.9587 8.94229C13.9587 8.805 13.9441 8.69729 13.9241 8.61458C13.8851 8.45208 13.7249 8.38167 13.5587 8.365C12.2982 8.23896 11.1114 7.21917 10.9418 6.015C10.9201 5.86292 10.8349 5.72229 10.686 5.68354C10.5352 5.64452 10.3802 5.62484 10.2245 5.625C10.0686 5.62479 9.91332 5.64446 9.76241 5.68354C9.61387 5.72229 9.52512 5.86188 9.52158 6.01563L9.38783 11.8365C9.38783 12.3038 9.01345 12.6827 8.55137 12.6827C8.08928 12.6827 7.71491 12.3038 7.71491 11.8365C7.71491 11.3506 8.12116 11.0379 8.55137 10.9579" stroke="white" stroke-width="0.625" stroke-linecap="round" stroke-linejoin="round"/>
</g>
<defs>
<linearGradient id="paint0_linear_5830_7714" x1="0" y1="10" x2="20" y2="10" gradientUnits="userSpaceOnUse">
<stop stop-color="#CC4645"/>
<stop offset="1" stop-color="#9A1D1C"/>
</linearGradient>
<clipPath id="clip0_5830_7714">
<rect width="10" height="10" fill="white" transform="translate(5 5)"/>
</clipPath>
</defs>
</svg>
