<svg width="20" height="20" fill="none" xmlns="http://www.w3.org/2000/svg"><circle cx="10" cy="10" r="10" fill="url(#paint0_linear_1965_24033)"/><path d="M9.918 15h-.004c-.417-.003-4.108-.037-5.154-.32a2.138 2.138 0 01-1.505-1.503c-.273-1.028-.256-3.005-.254-3.163-.002-.158-.02-2.152.253-3.188l.001-.003A2.184 2.184 0 014.758 5.31l.006-.001c1.033-.272 4.732-.305 5.15-.308h.008c.418.003 4.119.037 5.155.32A2.138 2.138 0 0116.58 6.82c.284 1.037.257 3.036.255 3.204.002.166.018 2.127-.254 3.16v.002a2.14 2.14 0 01-1.506 1.504l-.003.001c-1.034.272-4.732.305-5.15.308h-.004zM4.299 7.103c-.24.915-.217 2.884-.217 2.903v.015c-.007.546.018 2.127.217 2.876.097.359.382.643.742.74.772.208 3.778.274 4.877.282 1.101-.008 4.112-.072 4.878-.272.36-.097.643-.38.74-.74.2-.76.225-2.333.218-2.876v-.017c.01-.552-.01-2.152-.217-2.907v-.002a1.055 1.055 0 00-.743-.742c-.764-.209-3.775-.274-4.876-.282-1.101.008-4.109.072-4.877.272a1.084 1.084 0 00-.742.75zM8.54 12.19V7.811L12.323 10 8.54 12.19z" fill="#fff"/><defs><linearGradient id="paint0_linear_1965_24033" x1="0" y1="10" x2="20" y2="10" gradientUnits="userSpaceOnUse"><stop stop-color="#CC4645"/><stop offset="1" stop-color="#9A1D1C"/></linearGradient></defs></svg>